<?xml version="1.0" encoding="utf-8"?>
<!-- Generator: Adobe Illustrator 22.0.1, SVG Export Plug-In . SVG Version: 6.00 Build 0)  -->
<svg version="1.1" id="Capa_1" xmlns="http://www.w3.org/2000/svg" xmlns:xlink="http://www.w3.org/1999/xlink" x="0px" y="0px"
	 viewBox="524 -343.9 1630.2 1053.3" style="enable-background:new 524 -343.9 1630.2 1053.3;" xml:space="preserve">
<style type="text/css">
	.st0{fill:#69866B;}
</style>
<g id="Artboard">
	<path id="Rectangle-Copy-2" class="st0" d="M655.8-319.8c135.5-54.2,27.1,42.9,392.4,137.5c214.8,55.7,435.1,14.9,660.9-122.2
		c112.9-31.6,179-9,198.3,67.8c28.9,115.1,227.5,96,202.4,211.2s-202.4,111.6-202.4,293.1s309.9,325.8,236.2,409.4
		s-302.2-83.6-507.3,0s-604.9-186.1-732.6-186.1S667.3,689,585.6,598.9s-97.7-308.5,42-395.5S861.7,79.8,767.3-25.5
		S520.3-265.6,655.8-319.8z"/>
</g>
</svg>
